<svg xmlns="http://www.w3.org/2000/svg" viewBox="764.17 216.93 157.28 172.28">
  <path fill="currentColor" d="M 787.89286,385.80714 c 0.9751,-1.7875 3.4348,-6.84104 5.466,-11.23008 2.0312,-4.38905 4.1036,-8.11692 4.6053,-8.28416 0.5017,-0.16724 1.8537,1.96129 3.0043,4.73008 l 2.0921,5.03416 h -4.4446 c -2.4445,0 -4.4507,0.3375 -4.4582,0.75 -0.01,0.4125 -0.285,1.7625 -0.6166,3 -0.5802,2.16487 -0.3564,2.25 5.9149,2.25 6.4109,0 6.5523,0.0584 8.6201,3.5631 1.8173,3.08011 2.5423,3.52065 5.3488,3.25 1.7855,-0.17221 3.2465,-0.63641 3.2465,-1.03157 0,-0.39516 -3.15,-7.23276 -7,-15.19467 -7.2131,-14.91674 -8.2075,-16.02702 -13.1664,-14.7008 -2.1803,0.58312 -3.9098,3.21969 -9.944,15.15991 -4.0176,7.94972 -7.3238,14.79153 -7.3471,15.20403 -0.023,0.4125 1.5209,0.75 3.4318,0.75 2.8894,0 3.7728,-0.54713 5.2471,-3.25 z m 42.7576,-8.25 c 2.9719,-6.325 5.7903,-11.5 6.263,-11.5 0.7384,0 5.258,8.18884 5.258,9.52675 0,0.26029 -1.9769,0.47325 -4.3931,0.47325 -3.0833,0 -4.5739,0.47157 -5,1.58179 -1.4976,3.90286 -0.8043,4.41821 5.9441,4.41821 6.5417,0 6.5531,0.005 8.0134,3.5 1.268,3.03481 1.918,3.5 4.89,3.5 1.8851,0 3.6411,-0.34558 3.9021,-0.76795 0.2611,-0.42238 -2.7058,-7.37666 -6.593,-15.45395 -6.1881,-12.85821 -7.4149,-14.76224 -9.857,-15.29862 -1.5341,-0.33694 -3.6447,-0.15479 -4.6903,0.4048 -2.0424,1.09304 -16.3922,29.02193 -15.5837,30.33022 0.267,0.43203 1.8259,0.7855 3.4642,0.7855 2.819,0 3.2684,-0.61651 8.3823,-11.5 z m 36.9976,9.25 c 0.2831,-1.2375 0.6291,-5.4 0.769,-9.25 l 0.2544,-7 4.3605,7 c 7.0106,11.25407 8.4376,11.48341 14.1952,2.28139 6.3665,-10.17496 6.3784,-10.17521 6.9443,-0.1443 l 0.5,8.86291 3.25,0.31336 3.25,0.31336 v -15.44678 c 0,-15.36043 -0.013,-15.44926 -2.3188,-15.89004 -1.2753,-0.24378 -3.0831,-0.17509 -4.0175,0.15266 -1.5815,0.55475 -10.6637,13.32628 -10.6637,14.9954 0,0.41364 -0.8521,1.52318 -1.8935,2.46565 -1.8253,1.65187 -2.0991,1.36912 -7.6011,-7.85133 -5.7039,-9.55871 -7.6783,-11.24162 -12.1763,-10.37835 -1.6558,0.31777 -1.8556,1.71994 -2.1078,14.79257 -0.1533,7.94284 -0.055,15.02472 0.2186,15.73752 0.2735,0.71279 1.8528,1.29598 3.5096,1.29598 2.3047,0 3.1333,-0.52853 3.5271,-2.25 z m -88.2917,-54.63226 c 1.5957,-0.60813 4.6075,-5.11976 9.6931,-14.52014 4.058,-7.50083 7.7352,-13.85854 8.1716,-14.12825 0.4363,-0.2697 1.4336,0.75186 2.216,2.27014 13.9261,27.02248 14.5206,27.77014 21.4579,26.9882 2.3967,-0.27014 5.2126,-1.26487 6.2575,-2.21051 1.6465,-1.49008 5.019,-9.33897 5.019,-11.68092 0,-0.4441 -2.0377,-1.32055 -4.5282,-1.94766 -5.5429,-1.39573 -6.5261,-2.60414 -16.181,-19.8886 -9.4016,-16.83101 -13.3752,-23.06589 -14.3258,-22.47841 -0.6567,0.40586 -4.9791,7.70362 -12.7216,21.47841 -1.3911,2.475 -5.0063,8.775 -8.0338,14 -9.3435,16.12582 -12.2096,21.1791 -12.2096,21.52652 0,1.29493 12.1019,1.76612 15.1849,0.59122 z m 92.2028,-1.36774 c 1.3746,-1.2375 5.1999,-7.2 8.5005,-13.25 9.0415,-16.57263 8.1041,-15.98842 12.6557,-7.88743 2.1283,3.78809 5.7642,10.48743 8.0796,14.88743 l 4.2099,8 7.23967,0.29697 c 3.9818,0.16333 7.8592,0.0592 8.6165,-0.23135 1.5577,-0.59775 0.8595,-1.97972 -15.69387,-31.06562 -5.6343,-9.9 -11.1362,-19.575 -12.2265,-21.5 -2.3727,-4.18909 -3.783,-6 -4.6727,-6 -0.3623,0 -3.0867,4.1625 -6.0543,9.25 -2.9676,5.0875 -7.7824,13.3 -10.6996,18.25 -2.9172,4.95 -5.6735,9.63417 -6.1251,10.40927 -0.5935,1.01869 -2.331,-1.01569 -6.2693,-7.34032 -8.2462,-13.2429 -10.6426,-15.66746 -16.0933,-16.28183 -5.7691,-0.65026 -9.0939,1.35361 -11.2701,6.79257 -2.2291,5.57101 -2.0365,6.17156 2.7014,8.42031 3.9413,1.87067 9.4508,8.31163 19.9175,23.28489 4.4852,6.41634 12.4259,8.24861 17.184,3.96511 z m -45.4937,-58.26386 c 2.8083,-4.68263 5.106,-8.74297 5.106,-9.02298 0,-0.67226 9.1815,-16.46316 9.5724,-16.46316 0.1663,0 4.6599,7.65 9.9857,17 5.3258,9.35 9.9954,17 10.377,17 0.3816,0 1.6803,-1.84816 2.886,-4.10702 1.2057,-2.25887 2.9502,-5.39023 3.8767,-6.95859 1.4838,-2.51194 1.5166,-3.18402 0.2752,-5.64297 -1.5844,-3.13851 -10.8888,-19.69273 -17.8684,-31.79142 -2.5383,-4.4 -5.5026,-9.6875 -6.5873,-11.75 -1.8341,-3.48742 -4.5173,-5.09414 -4.5173,-2.70495 0,0.57478 -3.3217,6.76228 -7.3816,13.75 -13.3632,23.00026 -19.6184,34.1882 -19.6184,35.08874 0,1.53544 7.4922,14.11621 8.4066,14.11621 0.2098,0 2.6791,-3.83124 5.4874,-8.51386 z"/>
</svg>